<svg id="svg" version="1.1" xmlns="http://www.w3.org/2000/svg" xmlns:xlink="http://www.w3.org/1999/xlink" width="400" height="400" viewBox="0, 0, 400,400"><g id="svgg"><path id="path0" d="M193.148 47.631 C 193.284 47.850,192.202 47.931,190.437 47.833 C 188.822 47.743,187.500 47.826,187.500 48.019 C 187.500 48.211,186.680 48.298,185.677 48.214 C 184.674 48.129,183.652 48.227,183.406 48.431 C 183.160 48.636,182.468 48.714,181.869 48.605 C 181.270 48.497,180.536 48.610,180.239 48.857 C 179.941 49.104,179.257 49.195,178.716 49.060 C 178.176 48.924,177.734 48.948,177.734 49.114 C 177.734 49.381,176.814 49.511,173.926 49.650 C 173.442 49.673,173.047 49.868,173.047 50.084 C 173.047 50.304,172.630 50.371,172.094 50.236 C 171.570 50.105,171.028 50.181,170.890 50.405 C 170.751 50.629,170.301 50.706,169.889 50.576 C 169.477 50.445,169.141 50.505,169.141 50.709 C 169.141 50.913,168.447 51.089,167.599 51.101 C 166.751 51.113,165.719 51.303,165.306 51.524 C 164.894 51.745,164.445 51.815,164.309 51.679 C 164.174 51.543,164.063 51.602,164.063 51.810 C 164.063 52.018,163.667 52.209,163.184 52.236 C 162.021 52.301,161.240 52.494,160.645 52.866 C 160.376 53.034,160.156 53.051,160.156 52.905 C 160.156 52.759,159.888 52.861,159.561 53.133 C 159.233 53.405,158.854 53.516,158.718 53.379 C 158.582 53.243,158.234 53.328,157.946 53.567 C 157.658 53.806,157.422 53.890,157.422 53.754 C 157.422 53.617,156.821 53.756,156.087 54.063 C 155.352 54.370,154.649 54.519,154.524 54.394 C 154.399 54.269,154.297 54.391,154.297 54.664 C 154.297 54.946,154.043 55.064,153.711 54.937 C 153.389 54.813,153.125 54.901,153.125 55.132 C 153.125 55.363,152.861 55.451,152.539 55.327 C 152.217 55.204,151.953 55.281,151.953 55.498 C 151.953 55.716,151.733 55.858,151.465 55.815 C 151.196 55.772,150.669 55.852,150.293 55.993 C 149.917 56.134,149.302 56.366,148.926 56.507 C 148.550 56.649,148.110 56.737,147.949 56.703 C 147.788 56.669,147.656 56.835,147.656 57.073 C 147.656 57.311,147.413 57.412,147.115 57.298 C 146.818 57.184,146.202 57.351,145.748 57.669 C 145.294 57.987,144.922 58.146,144.922 58.021 C 144.922 57.896,144.482 58.082,143.945 58.434 C 143.408 58.786,142.969 58.946,142.969 58.789 C 142.969 58.632,142.516 58.800,141.963 59.163 C 141.410 59.525,140.588 59.893,140.136 59.980 C 139.685 60.067,139.214 60.294,139.091 60.485 C 138.843 60.870,137.080 61.527,136.621 61.406 C 136.460 61.363,136.328 61.533,136.328 61.784 C 136.328 62.035,136.219 62.131,136.086 61.998 C 135.805 61.717,130.337 64.381,130.142 64.894 C 130.070 65.084,129.851 65.140,129.654 65.018 C 129.458 64.897,129.297 65.013,129.297 65.276 C 129.297 65.540,129.190 65.649,129.060 65.518 C 128.930 65.388,128.464 65.616,128.024 66.026 C 127.585 66.435,127.090 66.686,126.925 66.584 C 126.760 66.482,126.348 66.677,126.008 67.016 C 125.668 67.356,125.388 67.490,125.385 67.313 C 125.381 67.137,125.220 67.243,125.025 67.551 C 124.831 67.858,124.353 68.156,123.964 68.213 C 123.575 68.270,123.195 68.502,123.119 68.729 C 123.044 68.955,122.731 69.141,122.425 69.141 C 122.118 69.141,121.574 69.483,121.216 69.902 C 120.857 70.321,120.419 70.574,120.243 70.465 C 120.066 70.356,119.922 70.433,119.922 70.638 C 119.922 70.842,119.482 71.119,118.945 71.254 C 118.408 71.389,117.969 71.672,117.969 71.882 C 117.969 72.093,117.705 72.266,117.383 72.266 C 117.061 72.266,116.797 72.441,116.797 72.656 C 116.797 72.871,116.533 73.047,116.211 73.047 C 115.889 73.047,115.625 73.223,115.625 73.438 C 115.625 73.652,115.403 73.828,115.133 73.828 C 114.862 73.828,114.167 74.268,113.587 74.805 C 113.008 75.342,112.387 75.781,112.208 75.781 C 112.028 75.781,111.230 76.396,110.433 77.148 C 109.636 77.899,108.984 78.419,108.984 78.304 C 108.984 78.091,108.848 78.189,106.932 79.774 C 106.341 80.264,105.298 81.104,104.615 81.641 C 103.932 82.178,102.733 83.232,101.950 83.984 C 101.167 84.736,100.407 85.395,100.261 85.447 C 99.540 85.708,91.406 93.418,91.406 93.842 C 91.406 94.039,90.308 95.285,88.965 96.612 C 87.622 97.938,85.908 99.780,85.156 100.706 C 83.941 102.201,83.218 103.069,81.532 105.054 C 80.039 106.812,77.350 110.391,77.347 110.624 C 77.345 110.774,76.904 111.371,76.367 111.951 C 75.830 112.531,75.391 113.243,75.391 113.534 C 75.391 113.824,75.215 114.063,75.000 114.063 C 74.785 114.063,74.609 114.326,74.609 114.648 C 74.609 114.971,74.434 115.234,74.219 115.234 C 74.004 115.234,73.828 115.498,73.828 115.820 C 73.828 116.143,73.690 116.406,73.522 116.406 C 73.230 116.406,72.083 118.120,71.823 118.945 C 71.755 119.160,71.432 119.649,71.104 120.032 C 70.776 120.415,70.512 120.855,70.518 121.009 C 70.524 121.163,70.260 121.602,69.932 121.985 C 69.604 122.368,69.386 122.770,69.448 122.878 C 69.509 122.986,69.288 123.346,68.956 123.678 C 68.624 124.010,68.452 124.443,68.574 124.641 C 68.696 124.838,68.610 125.000,68.382 125.000 C 68.155 125.000,67.969 125.264,67.969 125.586 C 67.969 125.908,67.814 126.172,67.626 126.172 C 67.253 126.172,66.162 128.526,66.313 129.004 C 66.364 129.165,66.267 129.297,66.096 129.297 C 65.685 129.297,61.218 138.807,59.766 142.773 C 59.608 143.203,59.296 143.994,59.072 144.531 C 58.571 145.733,58.089 147.005,58.036 147.266 C 58.014 147.373,57.890 147.637,57.761 147.852 C 57.520 148.254,55.474 154.343,55.296 155.189 C 55.241 155.450,55.091 155.928,54.962 156.250 C 54.455 157.521,53.569 160.938,53.746 160.938 C 53.849 160.938,53.759 161.265,53.545 161.664 C 53.142 162.416,51.359 170.102,50.949 172.852 C 50.638 174.937,50.467 175.964,50.006 178.516 C 49.620 180.653,49.402 182.731,48.897 189.063 C 45.998 225.462,58.892 268.117,80.739 294.398 C 88.799 304.093,93.149 308.751,98.828 313.770 C 100.225 315.004,102.070 316.637,102.930 317.399 C 105.435 319.620,112.014 324.609,112.438 324.609 C 112.651 324.609,112.884 324.767,112.956 324.960 C 113.153 325.490,118.814 329.297,119.405 329.297 C 119.690 329.297,119.922 329.445,119.922 329.626 C 119.922 329.807,120.581 330.290,121.387 330.700 C 122.192 331.110,122.939 331.551,123.047 331.680 C 123.387 332.088,125.183 332.982,125.488 332.895 C 125.649 332.850,125.781 332.977,125.781 333.178 C 125.781 333.379,126.396 333.766,127.148 334.038 C 127.900 334.309,128.516 334.683,128.516 334.867 C 128.516 335.052,128.691 335.094,128.906 334.961 C 129.121 334.828,129.297 334.916,129.297 335.156 C 129.297 335.396,129.458 335.494,129.654 335.372 C 129.851 335.251,130.070 335.307,130.142 335.496 C 130.337 336.010,135.805 338.674,136.086 338.393 C 136.219 338.260,136.328 338.385,136.328 338.672 C 136.328 338.958,136.439 339.082,136.575 338.946 C 136.711 338.810,137.589 339.149,138.528 339.699 C 139.467 340.249,140.234 340.580,140.234 340.435 C 140.234 340.290,140.850 340.551,141.602 341.016 C 142.354 341.480,142.969 341.754,142.969 341.624 C 142.969 341.495,143.408 341.676,143.945 342.028 C 144.482 342.380,144.922 342.556,144.922 342.419 C 144.922 342.282,145.361 342.457,145.898 342.809 C 146.436 343.161,146.875 343.320,146.875 343.161 C 146.875 343.003,147.166 343.114,147.521 343.409 C 147.876 343.704,148.184 343.889,148.205 343.820 C 148.225 343.751,148.770 343.901,149.414 344.152 C 150.059 344.403,150.762 344.640,150.977 344.679 C 151.191 344.717,151.587 344.886,151.855 345.054 C 152.124 345.221,152.344 345.239,152.344 345.092 C 152.344 344.946,152.607 345.045,152.930 345.313 C 153.252 345.580,153.516 345.668,153.516 345.508 C 153.516 345.348,153.735 345.394,154.004 345.610 C 154.272 345.827,155.107 346.146,155.859 346.320 C 157.555 346.711,157.495 346.694,158.203 347.002 C 158.525 347.142,159.141 347.320,159.570 347.398 C 160.000 347.475,160.615 347.646,160.938 347.776 C 162.389 348.364,167.505 349.510,169.922 349.787 C 170.459 349.849,170.898 349.944,170.898 349.999 C 170.898 350.055,171.250 350.162,171.680 350.237 C 172.109 350.313,172.900 350.458,173.438 350.559 C 176.199 351.078,179.075 351.514,181.641 351.803 C 182.607 351.912,183.926 352.076,184.570 352.167 C 192.656 353.306,211.274 353.172,219.141 351.917 C 220.537 351.695,221.943 351.504,222.266 351.493 C 226.736 351.346,246.181 346.532,251.367 344.288 C 252.227 343.917,253.230 343.558,253.596 343.491 C 255.014 343.233,265.677 338.485,270.592 335.925 C 315.421 312.568,346.161 267.655,351.727 217.383 C 353.002 205.864,352.839 189.574,351.355 180.078 C 351.035 178.037,350.755 176.104,350.732 175.781 C 350.647 174.598,348.832 165.756,348.247 163.672 C 347.915 162.490,347.552 161.084,347.440 160.547 C 347.217 159.472,346.552 157.167,346.200 156.250 C 346.077 155.928,345.931 155.450,345.876 155.189 C 345.703 154.365,343.656 148.260,343.416 147.852 C 343.289 147.637,343.156 147.264,343.119 147.022 C 343.049 146.562,341.986 144.038,341.373 142.876 C 341.177 142.503,341.016 141.998,341.016 141.752 C 341.016 140.910,335.478 129.297,335.076 129.297 C 334.905 129.297,334.807 129.165,334.859 129.004 C 335.010 128.526,333.919 126.172,333.546 126.172 C 333.358 126.172,333.203 125.908,333.203 125.586 C 333.203 125.264,333.017 125.000,332.789 125.000 C 332.562 125.000,332.476 124.838,332.598 124.641 C 332.720 124.443,332.548 124.010,332.216 123.678 C 331.884 123.346,331.663 122.986,331.724 122.878 C 331.786 122.770,331.568 122.368,331.240 121.985 C 330.912 121.602,330.648 121.163,330.654 121.009 C 330.659 120.855,330.321 120.327,329.901 119.837 C 329.481 119.347,329.209 118.945,329.297 118.945 C 329.385 118.945,329.119 118.374,328.706 117.676 C 328.294 116.978,327.819 116.406,327.650 116.406 C 327.482 116.406,327.344 116.143,327.344 115.820 C 327.344 115.498,327.168 115.234,326.953 115.234 C 326.738 115.234,326.563 114.971,326.563 114.648 C 326.563 114.326,326.387 114.063,326.172 114.063 C 325.957 114.063,325.781 113.824,325.781 113.534 C 325.781 113.243,325.342 112.531,324.805 111.951 C 324.268 111.371,323.828 110.756,323.828 110.584 C 323.828 110.411,323.389 109.796,322.852 109.217 C 322.314 108.637,321.875 108.021,321.875 107.847 C 321.875 107.673,321.422 107.199,320.868 106.793 C 320.314 106.387,319.538 105.439,319.144 104.688 C 318.750 103.936,318.061 103.062,317.612 102.746 C 317.164 102.430,316.797 101.973,316.797 101.730 C 316.797 101.487,316.270 100.885,315.625 100.391 C 314.980 99.897,314.453 99.323,314.453 99.115 C 314.453 98.908,313.398 97.738,312.109 96.515 C 310.820 95.292,309.766 94.120,309.766 93.911 C 309.766 93.702,308.686 92.481,307.367 91.199 C 306.048 89.916,305.093 89.131,305.246 89.453 C 305.398 89.775,304.972 89.424,304.299 88.672 C 303.626 87.920,302.915 87.347,302.718 87.399 C 302.522 87.452,302.086 86.962,301.750 86.313 C 301.414 85.663,301.004 85.214,300.840 85.315 C 300.676 85.416,300.043 84.900,299.432 84.168 C 298.822 83.436,298.171 82.931,297.987 83.045 C 297.802 83.159,297.545 82.978,297.416 82.642 C 297.287 82.306,296.939 82.031,296.641 82.031 C 296.344 82.031,295.881 81.680,295.612 81.250 C 295.344 80.820,294.903 80.469,294.633 80.469 C 294.362 80.469,294.185 80.249,294.238 79.980 C 294.292 79.712,294.116 79.536,293.848 79.590 C 293.579 79.644,293.359 79.501,293.359 79.274 C 293.359 79.046,293.202 78.957,293.011 79.076 C 292.819 79.194,292.253 78.778,291.754 78.151 C 291.255 77.524,290.709 77.097,290.540 77.201 C 290.372 77.305,290.234 77.204,290.234 76.976 C 290.234 76.749,290.015 76.606,289.746 76.660 C 289.478 76.714,289.306 76.525,289.365 76.240 C 289.424 75.956,289.324 75.815,289.142 75.928 C 288.960 76.040,288.529 75.833,288.183 75.468 C 287.073 74.295,286.376 73.828,285.736 73.828 C 285.392 73.828,285.219 73.652,285.352 73.438 C 285.484 73.223,285.221 73.047,284.766 73.047 C 284.311 73.047,284.047 72.871,284.180 72.656 C 284.312 72.441,284.049 72.266,283.594 72.266 C 283.139 72.266,282.875 72.090,283.008 71.875 C 283.141 71.660,283.046 71.484,282.797 71.484 C 281.952 71.484,279.693 70.229,279.909 69.879 C 280.028 69.688,279.863 69.531,279.543 69.531 C 279.224 69.531,278.689 69.258,278.355 68.924 C 278.021 68.590,277.367 68.244,276.902 68.154 C 276.436 68.065,275.720 67.631,275.309 67.190 C 274.899 66.749,274.424 66.475,274.255 66.579 C 274.085 66.684,273.587 66.435,273.148 66.026 C 272.708 65.616,272.242 65.388,272.112 65.518 C 271.982 65.649,271.875 65.540,271.875 65.276 C 271.875 65.013,271.714 64.897,271.518 65.018 C 271.321 65.140,271.102 65.084,271.029 64.894 C 270.835 64.381,265.367 61.717,265.086 61.998 C 264.953 62.131,264.844 62.024,264.844 61.761 C 264.844 61.497,264.675 61.386,264.469 61.514 C 264.083 61.752,262.744 61.118,261.800 60.250 C 261.506 59.980,261.092 59.865,260.881 59.996 C 260.670 60.126,260.179 59.944,259.789 59.591 C 259.399 59.239,258.579 58.859,257.966 58.748 C 257.354 58.637,256.720 58.337,256.557 58.082 C 256.395 57.826,256.259 57.759,256.256 57.932 C 256.253 58.106,255.878 57.987,255.424 57.669 C 254.970 57.351,254.354 57.184,254.057 57.298 C 253.759 57.412,253.516 57.316,253.516 57.085 C 253.516 56.854,253.252 56.766,252.930 56.890 C 252.607 57.014,252.344 56.920,252.344 56.682 C 252.344 56.445,251.904 56.250,251.367 56.250 C 250.830 56.250,250.391 56.080,250.391 55.872 C 250.391 55.664,250.127 55.594,249.805 55.718 C 249.482 55.842,249.219 55.754,249.219 55.523 C 249.219 55.292,248.955 55.204,248.633 55.327 C 248.311 55.451,248.047 55.363,248.047 55.132 C 248.047 54.901,247.783 54.813,247.461 54.937 C 247.139 55.061,246.875 55.005,246.875 54.813 C 246.875 54.621,246.523 54.431,246.094 54.390 C 244.394 54.228,244.141 54.154,244.141 53.818 C 244.141 53.626,243.977 53.571,243.777 53.694 C 243.577 53.818,243.301 53.737,243.164 53.516 C 243.027 53.294,242.743 53.218,242.534 53.348 C 242.325 53.477,241.897 53.370,241.584 53.111 C 241.272 52.851,241.016 52.770,241.016 52.930 C 241.016 53.090,240.718 52.979,240.355 52.685 C 239.810 52.243,239.750 52.242,240.012 52.677 C 240.256 53.082,240.114 53.070,239.404 52.623 C 238.894 52.302,238.169 52.092,237.793 52.157 C 237.417 52.222,237.109 52.144,237.109 51.984 C 237.109 51.673,236.636 51.564,234.766 51.443 C 234.121 51.401,233.594 51.252,233.594 51.111 C 233.594 50.970,233.242 50.946,232.813 51.059 C 232.356 51.178,232.031 51.071,232.031 50.800 C 232.031 50.523,231.733 50.433,231.283 50.576 C 230.871 50.706,230.421 50.629,230.282 50.405 C 230.144 50.181,229.602 50.105,229.078 50.236 C 228.523 50.376,228.125 50.305,228.125 50.067 C 228.125 49.842,227.817 49.663,227.441 49.669 C 227.065 49.675,226.143 49.566,225.391 49.428 C 223.454 49.073,221.125 48.783,219.531 48.700 C 218.779 48.661,217.967 48.502,217.726 48.346 C 217.484 48.190,216.474 48.131,215.479 48.215 C 214.485 48.299,213.672 48.218,213.672 48.034 C 213.672 47.850,212.363 47.745,210.764 47.800 C 209.165 47.856,207.945 47.758,208.053 47.583 C 208.161 47.409,204.801 47.266,200.586 47.266 C 195.932 47.266,193.011 47.409,193.148 47.631 M221.172 107.076 C 226.230 108.140,225.997 107.941,248.470 130.425 C 271.294 153.261,271.279 153.244,272.473 158.879 C 273.084 161.763,273.348 211.104,272.754 211.455 C 272.497 211.606,264.869 210.185,264.511 209.919 C 264.436 209.863,264.400 199.097,264.432 185.995 C 264.494 160.428,264.504 160.565,262.514 158.789 C 261.678 158.043,260.938 157.999,246.151 157.813 L 230.664 157.617 228.663 156.561 C 222.731 153.432,222.182 151.544,222.120 134.032 C 222.065 118.640,222.062 118.623,219.405 116.642 L 218.302 115.820 180.342 115.820 C 138.723 115.820,140.303 115.735,136.870 118.176 C 134.654 119.751,132.699 122.442,131.986 124.898 C 131.535 126.451,131.445 138.398,131.445 197.266 L 131.445 267.773 132.348 270.008 C 133.436 272.701,135.826 275.261,138.477 276.573 L 140.430 277.539 175.481 277.645 L 210.533 277.751 212.689 282.052 C 213.874 284.418,214.844 286.436,214.844 286.536 C 214.844 286.948,142.292 286.712,140.013 286.292 C 131.823 284.786,124.988 278.034,123.244 269.727 C 122.332 265.382,122.372 127.180,123.287 123.462 C 125.230 115.564,131.280 109.362,139.090 107.262 C 141.836 106.524,217.730 106.352,221.172 107.076 M195.898 183.364 C 223.440 200.023,222.946 199.666,222.021 202.295 C 221.559 203.609,221.216 203.829,201.859 215.222 C 183.745 225.883,183.128 226.156,181.302 224.330 C 179.657 222.686,179.626 222.191,179.762 199.609 C 179.928 172.038,178.895 173.078,195.898 183.364 M263.477 218.402 C 287.240 221.314,303.310 243.047,299.423 267.015 C 293.310 304.704,244.569 314.828,223.681 282.747 C 204.570 253.393,228.836 214.157,263.477 218.402 M210.300 244.838 C 210.480 245.130,208.466 252.383,207.992 253.151 C 207.467 254.000,149.940 253.595,148.525 252.733 C 145.369 250.808,146.118 246.008,149.739 244.960 C 151.251 244.522,210.031 244.404,210.300 244.838 " stroke="none" fill="#3a3e4a" fill-rule="evenodd"></path><path id="path1" d="M138.006 107.978 C 131.249 110.166,126.714 114.595,124.177 121.484 L 123.242 124.023 123.242 197.070 L 123.242 270.117 124.127 272.461 C 126.219 278.001,130.757 282.684,136.328 285.053 L 138.867 286.133 176.660 286.240 C 197.446 286.299,214.447 286.299,214.439 286.240 C 214.432 286.181,213.509 284.325,212.388 282.115 L 210.352 278.096 175.586 278.013 L 140.820 277.930 138.635 276.857 C 135.777 275.453,133.725 273.415,132.465 270.729 L 131.445 268.555 131.445 196.875 L 131.445 125.195 132.364 123.163 C 133.605 120.420,136.712 117.539,139.590 116.462 L 141.856 115.614 180.467 115.717 L 219.078 115.820 220.122 116.797 C 222.070 118.620,222.060 118.535,222.266 133.984 C 222.487 150.584,222.519 150.765,225.859 154.177 C 229.194 157.584,229.394 157.617,246.289 157.617 C 262.474 157.617,262.292 157.593,263.691 159.888 C 264.421 161.085,264.450 162.061,264.452 185.449 C 264.452 198.823,264.585 209.768,264.746 209.772 C 264.907 209.775,266.692 210.127,268.712 210.553 C 270.732 210.979,272.445 211.328,272.520 211.328 C 272.595 211.328,272.656 199.745,272.656 185.588 C 272.656 156.540,272.726 157.291,269.583 152.511 C 267.608 149.508,228.614 110.649,226.172 109.251 C 222.200 106.976,223.328 107.030,180.289 107.049 L 140.820 107.066 138.006 107.978 M181.501 177.839 C 180.054 179.285,180.033 179.667,180.158 202.215 L 180.273 222.984 181.250 224.029 C 182.885 225.778,184.331 225.309,192.773 220.292 C 196.855 217.866,204.678 213.252,210.156 210.039 C 225.143 201.248,225.110 201.369,214.258 194.811 C 211.250 192.993,206.240 189.935,203.125 188.015 C 183.861 176.144,183.408 175.931,181.501 177.839 M277.391 241.315 C 274.369 244.404,258.320 261.497,254.837 265.335 C 251.763 268.723,252.306 268.909,245.448 262.116 C 242.198 258.897,239.055 256.079,238.463 255.854 C 235.428 254.700,232.128 258.265,233.206 261.533 C 233.622 262.793,251.033 280.469,251.858 280.469 C 252.310 280.469,255.074 277.673,262.287 269.922 C 264.386 267.666,270.347 261.277,275.532 255.724 C 285.950 244.568,286.120 244.342,285.810 242.031 C 285.231 237.715,281.244 237.376,277.391 241.315 M149.060 245.519 C 145.344 247.457,146.532 253.127,150.654 253.124 C 151.476 253.123,164.628 253.137,179.882 253.156 C 202.609 253.183,207.665 253.095,207.894 252.669 C 208.182 252.131,210.156 245.578,210.156 245.158 C 210.156 244.561,150.219 244.914,149.060 245.519 " stroke="none" fill="#f9faf9" fill-rule="evenodd"></path><path id="path2" d="M160.645 106.934 C 171.548 106.991,189.390 106.991,200.293 106.934 C 211.196 106.876,202.275 106.829,180.469 106.829 C 158.662 106.829,149.741 106.876,160.645 106.934 M137.573 107.689 C 135.069 108.574,135.800 108.676,138.492 107.817 C 139.773 107.408,140.469 107.078,140.039 107.083 C 139.609 107.089,138.500 107.361,137.573 107.689 M225.781 109.028 C 226.533 109.481,227.456 110.123,227.832 110.455 C 228.208 110.787,228.516 110.945,228.516 110.805 C 228.516 110.441,225.356 108.203,224.844 108.205 C 224.607 108.205,225.029 108.576,225.781 109.028 M130.955 111.290 C 128.752 113.030,127.088 114.946,125.825 117.193 C 124.497 119.556,125.092 119.053,126.693 116.460 C 128.050 114.261,129.724 112.506,132.227 110.656 C 132.871 110.180,133.282 109.785,133.141 109.778 C 132.999 109.771,132.015 110.451,130.955 111.290 M248.633 130.859 C 259.588 141.816,268.640 150.781,268.747 150.781 C 268.855 150.781,259.979 141.816,249.023 130.859 C 238.068 119.902,229.017 110.938,228.909 110.938 C 228.802 110.938,237.677 119.902,248.633 130.859 M219.478 116.647 C 219.974 116.994,220.715 117.829,221.126 118.503 C 221.536 119.176,221.873 119.513,221.874 119.252 C 221.875 118.623,219.571 116.016,219.013 116.016 C 218.773 116.016,218.982 116.300,219.478 116.647 M136.448 118.193 L 135.352 119.198 136.621 118.314 C 137.319 117.829,137.891 117.376,137.891 117.309 C 137.891 117.001,137.459 117.265,136.448 118.193 M124.282 120.134 C 124.032 120.682,123.835 121.342,123.843 121.600 C 123.852 121.859,124.118 121.472,124.435 120.742 C 125.103 119.204,124.962 118.643,124.282 120.134 M133.909 120.605 C 133.221 121.407,132.705 122.266,132.911 122.266 C 132.991 122.266,133.446 121.738,133.923 121.094 C 134.864 119.820,134.855 119.504,133.909 120.605 M122.847 196.484 C 122.847 235.693,122.893 251.733,122.949 232.129 C 123.005 212.524,123.005 180.444,122.949 160.840 C 122.893 141.235,122.847 157.275,122.847 196.484 M221.981 144.141 C 221.981 145.107,222.058 145.503,222.151 145.020 C 222.244 144.536,222.244 143.745,222.151 143.262 C 222.058 142.778,221.981 143.174,221.981 144.141 M225.586 154.297 C 226.425 155.156,227.200 155.859,227.307 155.859 C 227.414 155.859,226.816 155.156,225.977 154.297 C 225.137 153.438,224.363 152.734,224.256 152.734 C 224.148 152.734,224.747 153.438,225.586 154.297 M252.815 157.711 C 254.256 157.786,256.717 157.787,258.284 157.712 C 259.851 157.638,258.672 157.577,255.664 157.576 C 252.656 157.575,251.374 157.636,252.815 157.711 M272.751 186.003 C 272.677 205.774,272.550 211.306,272.168 211.460 C 271.786 211.614,271.788 211.664,272.180 211.688 C 273.043 211.741,273.056 211.300,272.950 185.742 L 272.846 160.742 272.751 186.003 M179.869 201.172 C 179.869 212.451,179.919 217.065,179.980 211.426 C 180.041 205.786,180.041 196.558,179.980 190.918 C 179.919 185.278,179.869 189.893,179.869 201.172 M220.737 199.070 C 221.255 199.740,221.758 200.218,221.854 200.132 C 221.950 200.046,221.526 199.498,220.911 198.914 L 219.794 197.852 220.737 199.070 M264.153 208.203 C 264.153 208.955,264.234 209.263,264.332 208.887 C 264.430 208.511,264.430 207.896,264.332 207.520 C 264.234 207.144,264.153 207.451,264.153 208.203 M253.320 218.405 C 219.086 223.378,204.950 264.659,229.025 289.353 C 255.213 316.213,299.982 297.655,299.998 259.932 C 300.010 234.696,277.714 214.860,253.320 218.405 M284.573 239.551 C 287.683 242.227,287.009 243.434,275.532 255.724 C 270.347 261.277,264.386 267.666,262.287 269.922 C 255.074 277.673,252.310 280.469,251.858 280.469 C 251.033 280.469,233.622 262.793,233.206 261.533 C 232.128 258.265,235.428 254.700,238.463 255.854 C 239.055 256.079,242.198 258.897,245.448 262.116 C 252.306 268.909,251.763 268.723,254.837 265.335 C 258.320 261.497,274.369 244.404,277.391 241.315 C 280.384 238.255,282.470 237.743,284.573 239.551 M180.252 244.823 C 203.363 244.904,209.994 245.034,210.262 245.413 C 210.515 245.770,210.564 245.744,210.446 245.313 C 210.306 244.798,206.636 244.726,180.436 244.723 L 150.586 244.719 180.252 244.823 M146.583 249.023 C 146.587 249.883,146.667 250.188,146.761 249.702 C 146.854 249.217,146.851 248.513,146.753 248.140 C 146.655 247.767,146.579 248.164,146.583 249.023 M150.098 253.394 C 150.474 253.493,151.089 253.493,151.465 253.394 C 151.841 253.296,151.533 253.216,150.781 253.216 C 150.029 253.216,149.722 253.296,150.098 253.394 M165.751 253.418 C 173.018 253.477,184.795 253.477,191.923 253.418 C 199.051 253.358,193.105 253.309,178.711 253.309 C 164.316 253.310,158.484 253.358,165.751 253.418 M131.341 266.797 C 131.341 267.549,131.421 267.856,131.519 267.480 C 131.618 267.104,131.618 266.489,131.519 266.113 C 131.421 265.737,131.341 266.045,131.341 266.797 M126.019 276.882 C 126.425 277.594,127.098 278.473,127.514 278.835 C 127.953 279.217,127.799 278.838,127.145 277.930 C 125.579 275.755,125.146 275.353,126.019 276.882 M158.887 278.027 C 168.179 278.086,183.384 278.086,192.676 278.027 C 201.968 277.969,194.365 277.921,175.781 277.921 C 157.197 277.921,149.595 277.969,158.887 278.027 M211.356 279.883 C 211.356 280.098,211.607 280.713,211.914 281.250 C 212.221 281.787,212.472 282.051,212.472 281.836 C 212.472 281.621,212.221 281.006,211.914 280.469 C 211.607 279.932,211.356 279.668,211.356 279.883 M213.281 283.984 C 213.720 284.844,214.166 285.547,214.274 285.547 C 214.381 285.547,214.110 284.844,213.672 283.984 C 213.233 283.125,212.787 282.422,212.679 282.422 C 212.572 282.422,212.843 283.125,213.281 283.984 M177.930 286.328 L 141.211 286.529 178.027 286.624 C 202.374 286.687,214.844 286.586,214.844 286.328 C 214.844 286.113,214.800 285.980,214.746 286.032 C 214.692 286.084,198.125 286.217,177.930 286.328 " stroke="none" fill="#3cd16f" fill-rule="evenodd"></path></g></svg>